<mxfile host="app.diagrams.net" agent="Mozilla/5.0 (Windows NT 10.0; Win64; x64) AppleWebKit/537.36 (KHTML, like Gecko) Chrome/123.0.0.0 Safari/537.36 Edg/123.0.0.0" version="26.0.16">
  <diagram name="第 1 页" id="Il50LvmLc_Dm89lGtKwc">
    <mxGraphModel dx="3172" dy="3286" grid="1" gridSize="10" guides="1" tooltips="1" connect="1" arrows="1" fold="1" page="0" pageScale="1" pageWidth="827" pageHeight="1169" math="0" shadow="0">
      <root>
        <mxCell id="0" />
        <mxCell id="1" parent="0" />
        <mxCell id="sMx3lyHChUYrK6q1IhQX-1" value="" style="rounded=0;whiteSpace=wrap;html=1;strokeColor=#d6b656;fillColor=#fff2cc;" vertex="1" parent="1">
          <mxGeometry x="-213" y="-36" width="120" height="60" as="geometry" />
        </mxCell>
        <mxCell id="h-NcwGZP30wRlClRePMW-3" style="edgeStyle=none;curved=1;rounded=0;orthogonalLoop=1;jettySize=auto;html=1;entryX=0;entryY=0.5;entryDx=0;entryDy=0;strokeColor=#0B4D6A;fontSize=12;startSize=8;endSize=8;strokeWidth=6;" edge="1" parent="1" source="h-NcwGZP30wRlClRePMW-1" target="h-NcwGZP30wRlClRePMW-2">
          <mxGeometry relative="1" as="geometry" />
        </mxCell>
        <mxCell id="h-NcwGZP30wRlClRePMW-5" value="3*3Conv" style="edgeLabel;html=1;align=center;verticalAlign=middle;resizable=0;points=[];fontSize=17;strokeColor=#BAC8D3;fontColor=#EEEEEE;fillColor=#09555B;fontStyle=1;labelBackgroundColor=#990000;" vertex="1" connectable="0" parent="h-NcwGZP30wRlClRePMW-3">
          <mxGeometry x="-0.125" relative="1" as="geometry">
            <mxPoint as="offset" />
          </mxGeometry>
        </mxCell>
        <mxCell id="h-NcwGZP30wRlClRePMW-1" value="&lt;div style=&quot;line-height: 130%;&quot;&gt;&lt;font style=&quot;font-size: 21px;&quot;&gt;256*256*3&lt;/font&gt;&lt;/div&gt;" style="rounded=0;whiteSpace=wrap;html=1;strokeColor=#B09500;fillColor=#e3c800;fontColor=#000000;" vertex="1" parent="1">
          <mxGeometry x="-280" y="-1120" width="120" height="120" as="geometry" />
        </mxCell>
        <mxCell id="h-NcwGZP30wRlClRePMW-20" style="edgeStyle=none;curved=1;rounded=0;orthogonalLoop=1;jettySize=auto;html=1;entryX=0;entryY=0.5;entryDx=0;entryDy=0;strokeColor=#0B4D6A;fontSize=12;startSize=8;endSize=8;strokeWidth=6;" edge="1" parent="1" source="h-NcwGZP30wRlClRePMW-2" target="h-NcwGZP30wRlClRePMW-6">
          <mxGeometry relative="1" as="geometry" />
        </mxCell>
        <mxCell id="h-NcwGZP30wRlClRePMW-2" value="&lt;div style=&quot;line-height: 130%;&quot;&gt;&lt;font style=&quot;font-size: 21px;&quot;&gt;256*256*32&lt;/font&gt;&lt;/div&gt;" style="rounded=0;whiteSpace=wrap;html=1;strokeColor=#B09500;fillColor=#e3c800;fontColor=#000000;" vertex="1" parent="1">
          <mxGeometry y="-1120" width="120" height="120" as="geometry" />
        </mxCell>
        <mxCell id="h-NcwGZP30wRlClRePMW-21" style="edgeStyle=none;curved=1;rounded=0;orthogonalLoop=1;jettySize=auto;html=1;entryX=0;entryY=0.5;entryDx=0;entryDy=0;strokeColor=#0B4D6A;fontSize=12;startSize=8;endSize=8;strokeWidth=5;" edge="1" parent="1" source="h-NcwGZP30wRlClRePMW-6" target="h-NcwGZP30wRlClRePMW-7">
          <mxGeometry relative="1" as="geometry" />
        </mxCell>
        <mxCell id="h-NcwGZP30wRlClRePMW-6" value="&lt;div style=&quot;line-height: 130%;&quot;&gt;&lt;font style=&quot;font-size: 21px;&quot;&gt;128*128*64&lt;/font&gt;&lt;/div&gt;" style="rounded=0;whiteSpace=wrap;html=1;strokeColor=#B09500;fillColor=#e3c800;fontColor=#000000;" vertex="1" parent="1">
          <mxGeometry x="280" y="-1120" width="120" height="120" as="geometry" />
        </mxCell>
        <mxCell id="h-NcwGZP30wRlClRePMW-22" style="edgeStyle=none;curved=1;rounded=0;orthogonalLoop=1;jettySize=auto;html=1;entryX=0;entryY=0.5;entryDx=0;entryDy=0;strokeColor=#0B4D6A;fontSize=12;startSize=8;endSize=8;strokeWidth=5;" edge="1" parent="1" source="h-NcwGZP30wRlClRePMW-7" target="h-NcwGZP30wRlClRePMW-8">
          <mxGeometry relative="1" as="geometry" />
        </mxCell>
        <mxCell id="h-NcwGZP30wRlClRePMW-7" value="&lt;div style=&quot;line-height: 130%;&quot;&gt;&lt;font style=&quot;font-size: 21px;&quot;&gt;64*64*128&lt;/font&gt;&lt;/div&gt;" style="rounded=0;whiteSpace=wrap;html=1;strokeColor=#B09500;fillColor=#e3c800;fontColor=#000000;" vertex="1" parent="1">
          <mxGeometry x="560" y="-1120" width="120" height="120" as="geometry" />
        </mxCell>
        <mxCell id="h-NcwGZP30wRlClRePMW-23" style="edgeStyle=none;curved=1;rounded=0;orthogonalLoop=1;jettySize=auto;html=1;exitX=1;exitY=0.5;exitDx=0;exitDy=0;entryX=0;entryY=0.5;entryDx=0;entryDy=0;strokeColor=#0B4D6A;fontSize=12;startSize=8;endSize=8;strokeWidth=5;" edge="1" parent="1" source="h-NcwGZP30wRlClRePMW-8" target="h-NcwGZP30wRlClRePMW-9">
          <mxGeometry relative="1" as="geometry" />
        </mxCell>
        <mxCell id="h-NcwGZP30wRlClRePMW-8" value="&lt;div style=&quot;line-height: 130%;&quot;&gt;&lt;font style=&quot;font-size: 21px;&quot;&gt;32*32*256&lt;/font&gt;&lt;/div&gt;" style="rounded=0;whiteSpace=wrap;html=1;strokeColor=#B09500;fillColor=#e3c800;fontColor=#000000;" vertex="1" parent="1">
          <mxGeometry x="840" y="-1120" width="120" height="120" as="geometry" />
        </mxCell>
        <mxCell id="h-NcwGZP30wRlClRePMW-24" style="edgeStyle=none;curved=1;rounded=0;orthogonalLoop=1;jettySize=auto;html=1;entryX=0;entryY=0.5;entryDx=0;entryDy=0;strokeColor=#0B4D6A;fontSize=12;startSize=8;endSize=8;strokeWidth=5;" edge="1" parent="1" source="h-NcwGZP30wRlClRePMW-9" target="h-NcwGZP30wRlClRePMW-10">
          <mxGeometry relative="1" as="geometry" />
        </mxCell>
        <mxCell id="h-NcwGZP30wRlClRePMW-58" style="edgeStyle=none;curved=0;rounded=0;orthogonalLoop=1;jettySize=auto;html=1;entryX=0.5;entryY=1;entryDx=0;entryDy=0;strokeColor=#0B4D6A;fontSize=12;startSize=8;endSize=8;strokeWidth=5;" edge="1" parent="1" source="h-NcwGZP30wRlClRePMW-9" target="h-NcwGZP30wRlClRePMW-26">
          <mxGeometry relative="1" as="geometry">
            <Array as="points">
              <mxPoint x="1180" y="-720" />
              <mxPoint x="1940" y="-720" />
            </Array>
          </mxGeometry>
        </mxCell>
        <mxCell id="h-NcwGZP30wRlClRePMW-9" value="&lt;div style=&quot;line-height: 130%;&quot;&gt;&lt;font style=&quot;font-size: 21px;&quot;&gt;16*16*512&lt;/font&gt;&lt;/div&gt;" style="rounded=0;whiteSpace=wrap;html=1;strokeColor=#B09500;fillColor=#e3c800;fontColor=#000000;" vertex="1" parent="1">
          <mxGeometry x="1120" y="-1120" width="120" height="120" as="geometry" />
        </mxCell>
        <mxCell id="h-NcwGZP30wRlClRePMW-15" style="edgeStyle=none;curved=1;rounded=0;orthogonalLoop=1;jettySize=auto;html=1;entryX=0;entryY=0.5;entryDx=0;entryDy=0;strokeColor=#0B4D6A;fontSize=26;targetPerimeterSpacing=10;sourcePerimeterSpacing=0;fontStyle=2;textShadow=1;labelBorderColor=default;fontFamily=Times New Roman;strokeWidth=7;" edge="1" parent="1" source="h-NcwGZP30wRlClRePMW-10" target="h-NcwGZP30wRlClRePMW-11">
          <mxGeometry relative="1" as="geometry" />
        </mxCell>
        <mxCell id="h-NcwGZP30wRlClRePMW-10" value="&lt;div style=&quot;line-height: 130%;&quot;&gt;&lt;font style=&quot;font-size: 21px;&quot;&gt;8*8*1024&lt;/font&gt;&lt;/div&gt;" style="rounded=0;whiteSpace=wrap;html=1;strokeColor=#B09500;fillColor=#e3c800;fontColor=#000000;" vertex="1" parent="1">
          <mxGeometry x="1400" y="-1120" width="120" height="120" as="geometry" />
        </mxCell>
        <mxCell id="h-NcwGZP30wRlClRePMW-16" style="edgeStyle=none;curved=1;rounded=0;orthogonalLoop=1;jettySize=auto;html=1;entryX=0;entryY=0.5;entryDx=0;entryDy=0;strokeColor=#0B4D6A;fontSize=12;startSize=8;endSize=8;strokeWidth=6;" edge="1" parent="1" source="h-NcwGZP30wRlClRePMW-11" target="h-NcwGZP30wRlClRePMW-12">
          <mxGeometry relative="1" as="geometry" />
        </mxCell>
        <mxCell id="h-NcwGZP30wRlClRePMW-27" style="edgeStyle=none;curved=1;rounded=0;orthogonalLoop=1;jettySize=auto;html=1;entryX=0.5;entryY=0;entryDx=0;entryDy=0;strokeColor=#0B4D6A;fontSize=12;startSize=8;endSize=8;strokeWidth=5;" edge="1" parent="1" source="h-NcwGZP30wRlClRePMW-11" target="h-NcwGZP30wRlClRePMW-25">
          <mxGeometry relative="1" as="geometry" />
        </mxCell>
        <mxCell id="h-NcwGZP30wRlClRePMW-11" value="&lt;div style=&quot;line-height: 130%;&quot;&gt;&lt;font style=&quot;font-size: 21px;&quot;&gt;8*8*512&lt;/font&gt;&lt;/div&gt;" style="rounded=0;whiteSpace=wrap;html=1;strokeColor=#C73500;fillColor=#fa6800;fontColor=#000000;" vertex="1" parent="1">
          <mxGeometry x="1680" y="-1120" width="120" height="120" as="geometry" />
        </mxCell>
        <mxCell id="h-NcwGZP30wRlClRePMW-12" value="&lt;div style=&quot;line-height: 130%;&quot;&gt;&lt;font style=&quot;font-size: 21px;&quot;&gt;8*8*1024&lt;/font&gt;&lt;/div&gt;" style="rounded=0;whiteSpace=wrap;html=1;strokeColor=#C73500;fillColor=#fa6800;fontColor=#000000;" vertex="1" parent="1">
          <mxGeometry x="1960" y="-1120" width="120" height="120" as="geometry" />
        </mxCell>
        <mxCell id="h-NcwGZP30wRlClRePMW-19" style="edgeStyle=none;curved=1;rounded=0;orthogonalLoop=1;jettySize=auto;html=1;entryX=0;entryY=0.5;entryDx=0;entryDy=0;strokeColor=#0B4D6A;fontSize=12;startSize=8;endSize=8;strokeWidth=5;" edge="1" parent="1" source="h-NcwGZP30wRlClRePMW-13" target="h-NcwGZP30wRlClRePMW-14">
          <mxGeometry relative="1" as="geometry" />
        </mxCell>
        <mxCell id="h-NcwGZP30wRlClRePMW-13" value="&lt;div style=&quot;line-height: 130%;&quot;&gt;&lt;font style=&quot;font-size: 21px;&quot;&gt;8*8*255&lt;/font&gt;&lt;/div&gt;" style="rounded=0;whiteSpace=wrap;html=1;strokeColor=#C73500;fillColor=#fa6800;fontColor=#000000;" vertex="1" parent="1">
          <mxGeometry x="2240" y="-1120" width="120" height="120" as="geometry" />
        </mxCell>
        <mxCell id="h-NcwGZP30wRlClRePMW-14" value="&lt;div style=&quot;line-height: 130%;&quot;&gt;&lt;span style=&quot;font-size: 21px;&quot;&gt;Feature Map 1&lt;/span&gt;&lt;/div&gt;" style="rounded=0;whiteSpace=wrap;html=1;strokeColor=#6D1F00;fillColor=#a0522d;fontColor=#ffffff;" vertex="1" parent="1">
          <mxGeometry x="3720" y="-1090" width="220" height="80" as="geometry" />
        </mxCell>
        <mxCell id="h-NcwGZP30wRlClRePMW-17" style="edgeStyle=none;curved=1;rounded=0;orthogonalLoop=1;jettySize=auto;html=1;entryX=0;entryY=0.5;entryDx=0;entryDy=0;strokeColor=#0B4D6A;fontSize=12;startSize=8;endSize=8;strokeWidth=6;" edge="1" parent="1">
          <mxGeometry relative="1" as="geometry">
            <mxPoint x="2080" y="-1060.5" as="sourcePoint" />
            <mxPoint x="2240" y="-1060.5" as="targetPoint" />
          </mxGeometry>
        </mxCell>
        <mxCell id="h-NcwGZP30wRlClRePMW-28" style="edgeStyle=none;curved=1;rounded=0;orthogonalLoop=1;jettySize=auto;html=1;entryX=0;entryY=0.5;entryDx=0;entryDy=0;strokeColor=#0B4D6A;fontSize=12;startSize=8;endSize=8;strokeWidth=6;" edge="1" parent="1" source="h-NcwGZP30wRlClRePMW-25" target="h-NcwGZP30wRlClRePMW-26">
          <mxGeometry relative="1" as="geometry" />
        </mxCell>
        <mxCell id="h-NcwGZP30wRlClRePMW-25" value="&lt;div style=&quot;line-height: 130%;&quot;&gt;&lt;font style=&quot;font-size: 21px;&quot;&gt;8*8*256&lt;/font&gt;&lt;/div&gt;" style="rounded=0;whiteSpace=wrap;html=1;strokeColor=#432D57;fillColor=#76608a;fontColor=#ffffff;" vertex="1" parent="1">
          <mxGeometry x="1680" y="-920" width="120" height="120" as="geometry" />
        </mxCell>
        <mxCell id="h-NcwGZP30wRlClRePMW-60" style="edgeStyle=none;curved=1;rounded=0;orthogonalLoop=1;jettySize=auto;html=1;strokeColor=#0B4D6A;fontSize=12;startSize=8;endSize=8;strokeWidth=5;" edge="1" parent="1" source="h-NcwGZP30wRlClRePMW-26" target="h-NcwGZP30wRlClRePMW-34">
          <mxGeometry relative="1" as="geometry" />
        </mxCell>
        <mxCell id="h-NcwGZP30wRlClRePMW-26" value="&lt;div style=&quot;line-height: 130%;&quot;&gt;&lt;font style=&quot;font-size: 21px;&quot;&gt;16*16*256&lt;/font&gt;&lt;/div&gt;" style="rounded=0;whiteSpace=wrap;html=1;strokeColor=#432D57;fillColor=#76608a;fontColor=#ffffff;" vertex="1" parent="1">
          <mxGeometry x="1880" y="-920" width="120" height="120" as="geometry" />
        </mxCell>
        <mxCell id="h-NcwGZP30wRlClRePMW-37" style="edgeStyle=none;curved=1;rounded=0;orthogonalLoop=1;jettySize=auto;html=1;entryX=0;entryY=0.5;entryDx=0;entryDy=0;strokeColor=#0B4D6A;fontSize=12;startSize=8;endSize=8;strokeWidth=6;" edge="1" parent="1" source="h-NcwGZP30wRlClRePMW-34" target="h-NcwGZP30wRlClRePMW-36">
          <mxGeometry relative="1" as="geometry" />
        </mxCell>
        <mxCell id="h-NcwGZP30wRlClRePMW-34" value="&lt;div style=&quot;line-height: 130%;&quot;&gt;&lt;font style=&quot;font-size: 21px;&quot;&gt;16*16*768&lt;/font&gt;&lt;/div&gt;" style="rounded=0;whiteSpace=wrap;html=1;strokeColor=#432D57;fillColor=#76608a;fontColor=#ffffff;" vertex="1" parent="1">
          <mxGeometry x="2100" y="-920" width="120" height="120" as="geometry" />
        </mxCell>
        <mxCell id="h-NcwGZP30wRlClRePMW-40" style="edgeStyle=none;curved=1;rounded=0;orthogonalLoop=1;jettySize=auto;html=1;entryX=0;entryY=0.5;entryDx=0;entryDy=0;strokeColor=#0B4D6A;fontSize=12;startSize=8;endSize=8;strokeWidth=5;" edge="1" parent="1" source="h-NcwGZP30wRlClRePMW-36" target="h-NcwGZP30wRlClRePMW-38">
          <mxGeometry relative="1" as="geometry" />
        </mxCell>
        <mxCell id="h-NcwGZP30wRlClRePMW-59" style="edgeStyle=none;curved=1;rounded=0;orthogonalLoop=1;jettySize=auto;html=1;entryX=0.5;entryY=0;entryDx=0;entryDy=0;strokeColor=#0B4D6A;fontSize=12;startSize=8;endSize=8;strokeWidth=5;" edge="1" parent="1" source="h-NcwGZP30wRlClRePMW-36" target="h-NcwGZP30wRlClRePMW-44">
          <mxGeometry relative="1" as="geometry" />
        </mxCell>
        <mxCell id="h-NcwGZP30wRlClRePMW-36" value="&lt;div style=&quot;line-height: 130%;&quot;&gt;&lt;font style=&quot;font-size: 21px;&quot;&gt;16*16*256&lt;/font&gt;&lt;/div&gt;" style="rounded=0;whiteSpace=wrap;html=1;strokeColor=#432D57;fillColor=#76608a;fontColor=#ffffff;" vertex="1" parent="1">
          <mxGeometry x="2320" y="-920" width="120" height="120" as="geometry" />
        </mxCell>
        <mxCell id="h-NcwGZP30wRlClRePMW-41" style="edgeStyle=none;curved=1;rounded=0;orthogonalLoop=1;jettySize=auto;html=1;entryX=0;entryY=0.5;entryDx=0;entryDy=0;strokeColor=#0B4D6A;fontSize=12;startSize=8;endSize=8;strokeWidth=5;" edge="1" parent="1" source="h-NcwGZP30wRlClRePMW-38" target="h-NcwGZP30wRlClRePMW-39">
          <mxGeometry relative="1" as="geometry" />
        </mxCell>
        <mxCell id="h-NcwGZP30wRlClRePMW-38" value="&lt;div style=&quot;line-height: 130%;&quot;&gt;&lt;font style=&quot;font-size: 21px;&quot;&gt;16*16*512&lt;/font&gt;&lt;/div&gt;" style="rounded=0;whiteSpace=wrap;html=1;strokeColor=#432D57;fillColor=#76608a;fontColor=#ffffff;" vertex="1" parent="1">
          <mxGeometry x="2560" y="-920" width="120" height="120" as="geometry" />
        </mxCell>
        <mxCell id="h-NcwGZP30wRlClRePMW-43" style="edgeStyle=none;curved=1;rounded=0;orthogonalLoop=1;jettySize=auto;html=1;entryX=0;entryY=0.5;entryDx=0;entryDy=0;strokeColor=#0B4D6A;fontSize=12;startSize=8;endSize=8;strokeWidth=5;" edge="1" parent="1" source="h-NcwGZP30wRlClRePMW-39" target="h-NcwGZP30wRlClRePMW-42">
          <mxGeometry relative="1" as="geometry" />
        </mxCell>
        <mxCell id="h-NcwGZP30wRlClRePMW-39" value="&lt;div style=&quot;line-height: 130%;&quot;&gt;&lt;font style=&quot;font-size: 21px;&quot;&gt;16*16*255&lt;/font&gt;&lt;/div&gt;" style="rounded=0;whiteSpace=wrap;html=1;strokeColor=#432D57;fillColor=#76608a;fontColor=#ffffff;" vertex="1" parent="1">
          <mxGeometry x="2800" y="-920" width="120" height="120" as="geometry" />
        </mxCell>
        <mxCell id="h-NcwGZP30wRlClRePMW-42" value="&lt;div style=&quot;line-height: 130%;&quot;&gt;&lt;span style=&quot;font-size: 21px;&quot;&gt;Feature Map 2&lt;/span&gt;&lt;/div&gt;" style="rounded=0;whiteSpace=wrap;html=1;strokeColor=#6D1F00;fillColor=#a0522d;fontColor=#ffffff;" vertex="1" parent="1">
          <mxGeometry x="3720" y="-900" width="220" height="80" as="geometry" />
        </mxCell>
        <mxCell id="h-NcwGZP30wRlClRePMW-50" style="edgeStyle=none;curved=1;rounded=0;orthogonalLoop=1;jettySize=auto;html=1;entryX=0;entryY=0.5;entryDx=0;entryDy=0;strokeColor=#0B4D6A;fontSize=12;startSize=8;endSize=8;strokeWidth=5;" edge="1" parent="1" source="h-NcwGZP30wRlClRePMW-44" target="h-NcwGZP30wRlClRePMW-45">
          <mxGeometry relative="1" as="geometry" />
        </mxCell>
        <mxCell id="h-NcwGZP30wRlClRePMW-44" value="&lt;div style=&quot;line-height: 130%;&quot;&gt;&lt;font style=&quot;font-size: 21px;&quot;&gt;16*16*128&lt;/font&gt;&lt;/div&gt;" style="rounded=0;whiteSpace=wrap;html=1;strokeColor=#10739e;fillColor=#b1ddf0;" vertex="1" parent="1">
          <mxGeometry x="2320" y="-600" width="120" height="120" as="geometry" />
        </mxCell>
        <mxCell id="h-NcwGZP30wRlClRePMW-51" style="edgeStyle=none;curved=1;rounded=0;orthogonalLoop=1;jettySize=auto;html=1;entryX=0;entryY=0.5;entryDx=0;entryDy=0;strokeColor=#0B4D6A;fontSize=12;startSize=8;endSize=8;strokeWidth=5;" edge="1" parent="1" source="h-NcwGZP30wRlClRePMW-45" target="h-NcwGZP30wRlClRePMW-46">
          <mxGeometry relative="1" as="geometry" />
        </mxCell>
        <mxCell id="h-NcwGZP30wRlClRePMW-45" value="&lt;div style=&quot;line-height: 130%;&quot;&gt;&lt;font style=&quot;font-size: 21px;&quot;&gt;32*32*128&lt;/font&gt;&lt;/div&gt;" style="rounded=0;whiteSpace=wrap;html=1;strokeColor=#10739e;fillColor=#b1ddf0;" vertex="1" parent="1">
          <mxGeometry x="2560" y="-600" width="120" height="120" as="geometry" />
        </mxCell>
        <mxCell id="h-NcwGZP30wRlClRePMW-52" style="edgeStyle=none;curved=1;rounded=0;orthogonalLoop=1;jettySize=auto;html=1;entryX=0;entryY=0.5;entryDx=0;entryDy=0;strokeColor=#0B4D6A;fontSize=12;startSize=8;endSize=8;strokeWidth=5;" edge="1" parent="1" source="h-NcwGZP30wRlClRePMW-46" target="h-NcwGZP30wRlClRePMW-47">
          <mxGeometry relative="1" as="geometry" />
        </mxCell>
        <mxCell id="h-NcwGZP30wRlClRePMW-46" value="&lt;div style=&quot;line-height: 130%;&quot;&gt;&lt;font style=&quot;font-size: 21px;&quot;&gt;32*32*384&lt;/font&gt;&lt;/div&gt;" style="rounded=0;whiteSpace=wrap;html=1;strokeColor=#10739e;fillColor=#b1ddf0;" vertex="1" parent="1">
          <mxGeometry x="2800" y="-600" width="120" height="120" as="geometry" />
        </mxCell>
        <mxCell id="h-NcwGZP30wRlClRePMW-53" style="edgeStyle=none;curved=1;rounded=0;orthogonalLoop=1;jettySize=auto;html=1;entryX=0;entryY=0.5;entryDx=0;entryDy=0;strokeColor=#0B4D6A;fontSize=12;startSize=8;endSize=8;strokeWidth=5;" edge="1" parent="1" source="h-NcwGZP30wRlClRePMW-47" target="h-NcwGZP30wRlClRePMW-48">
          <mxGeometry relative="1" as="geometry" />
        </mxCell>
        <mxCell id="h-NcwGZP30wRlClRePMW-47" value="&lt;div style=&quot;line-height: 130%;&quot;&gt;&lt;font style=&quot;font-size: 21px;&quot;&gt;32*32*128&lt;/font&gt;&lt;/div&gt;" style="rounded=0;whiteSpace=wrap;html=1;strokeColor=#10739e;fillColor=#b1ddf0;" vertex="1" parent="1">
          <mxGeometry x="3040" y="-600" width="120" height="120" as="geometry" />
        </mxCell>
        <mxCell id="h-NcwGZP30wRlClRePMW-54" style="edgeStyle=none;curved=1;rounded=0;orthogonalLoop=1;jettySize=auto;html=1;strokeColor=#0B4D6A;fontSize=12;startSize=8;endSize=8;strokeWidth=5;" edge="1" parent="1" source="h-NcwGZP30wRlClRePMW-48" target="h-NcwGZP30wRlClRePMW-49">
          <mxGeometry relative="1" as="geometry" />
        </mxCell>
        <mxCell id="h-NcwGZP30wRlClRePMW-48" value="&lt;div style=&quot;line-height: 130%;&quot;&gt;&lt;font style=&quot;font-size: 21px;&quot;&gt;32*32*256&lt;/font&gt;&lt;/div&gt;" style="rounded=0;whiteSpace=wrap;html=1;strokeColor=#10739e;fillColor=#b1ddf0;" vertex="1" parent="1">
          <mxGeometry x="3280" y="-600" width="120" height="120" as="geometry" />
        </mxCell>
        <mxCell id="h-NcwGZP30wRlClRePMW-56" style="edgeStyle=none;curved=1;rounded=0;orthogonalLoop=1;jettySize=auto;html=1;entryX=0;entryY=0.5;entryDx=0;entryDy=0;strokeColor=#0B4D6A;fontSize=12;startSize=8;endSize=8;strokeWidth=5;" edge="1" parent="1" source="h-NcwGZP30wRlClRePMW-49" target="h-NcwGZP30wRlClRePMW-55">
          <mxGeometry relative="1" as="geometry" />
        </mxCell>
        <mxCell id="h-NcwGZP30wRlClRePMW-49" value="&lt;div style=&quot;line-height: 130%;&quot;&gt;&lt;font style=&quot;font-size: 21px;&quot;&gt;32*32*255&lt;/font&gt;&lt;/div&gt;" style="rounded=0;whiteSpace=wrap;html=1;strokeColor=#10739e;fillColor=#b1ddf0;" vertex="1" parent="1">
          <mxGeometry x="3520" y="-600" width="120" height="120" as="geometry" />
        </mxCell>
        <mxCell id="h-NcwGZP30wRlClRePMW-55" value="&lt;div style=&quot;line-height: 130%;&quot;&gt;&lt;span style=&quot;font-size: 21px;&quot;&gt;Feature Map 3&lt;/span&gt;&lt;/div&gt;" style="rounded=0;whiteSpace=wrap;html=1;strokeColor=#6D1F00;fillColor=#a0522d;fontColor=#ffffff;" vertex="1" parent="1">
          <mxGeometry x="3720" y="-580" width="220" height="80" as="geometry" />
        </mxCell>
        <UserObject label="" tooltip="backbone" id="h-NcwGZP30wRlClRePMW-61">
          <mxCell style="rounded=0;whiteSpace=wrap;html=1;fillColor=#fad9d5;strokeColor=#ae4132;opacity=50;" vertex="1" parent="1">
            <mxGeometry x="-325" y="-1270" width="1890" height="360" as="geometry" />
          </mxCell>
        </UserObject>
        <mxCell id="h-NcwGZP30wRlClRePMW-57" style="edgeStyle=none;curved=0;rounded=0;orthogonalLoop=1;jettySize=auto;html=1;entryX=0.606;entryY=0.998;entryDx=0;entryDy=0;entryPerimeter=0;strokeColor=#0B4D6A;fontSize=12;startSize=8;endSize=8;strokeWidth=5;" edge="1" parent="1" source="h-NcwGZP30wRlClRePMW-8" target="h-NcwGZP30wRlClRePMW-45">
          <mxGeometry relative="1" as="geometry">
            <Array as="points">
              <mxPoint x="900" y="-390" />
              <mxPoint x="2633" y="-400" />
            </Array>
          </mxGeometry>
        </mxCell>
      </root>
    </mxGraphModel>
  </diagram>
</mxfile>
